<svg width="34" height="34" viewBox="0 0 34 34" fill="none" xmlns="http://www.w3.org/2000/svg">
    <path d="M31.7431 0.425903H2.25684C1.77199 0.425903 1.307 0.618509 0.964156 0.961349C0.621316 1.30419 0.428711 1.76918 0.428711 2.25403V31.7431C0.428711 32.2279 0.621316 32.6929 0.964156 33.0358C1.307 33.3786 1.77199 33.5712 2.25684 33.5712H18.125V20.7378H13.8106V15.7343H18.125V12.0443C18.125 7.76372 20.7406 5.43215 24.56 5.43215C25.8488 5.42756 27.137 5.49328 28.4187 5.62903V10.1037H25.7778C23.6993 10.1037 23.2971 11.0909 23.2971 12.5393V15.7343H28.25L27.6059 20.7378H23.2971V33.574H31.7346C32.2193 33.5733 32.6838 33.3804 33.0265 33.0378C33.3692 32.6951 33.562 32.2305 33.5628 31.7459V2.25684C33.5635 1.77296 33.3724 1.30853 33.0313 0.965319C32.6902 0.622113 32.227 0.428136 31.7431 0.425903Z" fill="#4A4A4A"/>
</svg>
