<svg width="34" height="34" viewBox="0 0 34 34" fill="none" xmlns="http://www.w3.org/2000/svg">
    <path fill-rule="evenodd" clip-rule="evenodd" d="M17 0.435181C7.62115 0.435181 0.0158691 8.03877 0.0158691 17.4193C0.0158691 24.9236 4.88234 31.2897 11.6307 33.5358C12.4792 33.6933 12.7908 33.1673 12.7908 32.7187C12.7908 32.3137 12.7751 30.9758 12.7677 29.5567C8.04274 30.5841 7.04571 27.5527 7.04571 27.5527C6.27312 25.5896 5.15993 25.0676 5.15993 25.0676C3.61868 24.0135 5.27609 24.0354 5.27609 24.0354C6.98131 24.155 7.87962 25.7857 7.87962 25.7857C9.39443 28.3816 11.8528 27.6312 12.822 27.1975C12.9745 26.0998 13.4146 25.3503 13.9003 24.9261C10.1279 24.4972 6.16203 23.0406 6.16203 16.5328C6.16203 14.6785 6.82578 13.1634 7.91224 11.9737C7.73562 11.5462 7.15428 9.81881 8.07649 7.47937C8.07649 7.47937 9.50243 7.0229 12.7481 9.22031C14.1031 8.84371 15.5563 8.65443 17 8.64796C18.4428 8.65443 19.8969 8.84315 21.2545 9.21974C24.4962 7.02234 25.9204 7.47881 25.9204 7.47881C26.8449 9.81796 26.2635 11.5457 26.0872 11.9732C27.1762 13.1629 27.8352 14.678 27.8352 16.5322C27.8352 23.0556 23.8619 24.4916 20.08 24.9124C20.6894 25.4394 21.2322 26.4733 21.2322 28.0576C21.2322 30.3301 21.2126 32.1591 21.2126 32.7185C21.2126 33.1704 21.5186 33.7 22.3792 33.5332C29.1236 31.2849 33.9844 24.9208 33.9844 17.4193C33.9841 8.03934 26.3797 0.435181 17 0.435181Z" fill="#4A4A4A"/>
    <path d="M6.44862 24.8204C6.41121 24.9048 6.27846 24.9301 6.15753 24.8724C6.03378 24.8173 5.96487 24.7023 6.00481 24.6176C6.04137 24.5304 6.1744 24.5065 6.29731 24.5647C6.42106 24.6202 6.49165 24.736 6.44862 24.8204ZM7.13656 25.5879C7.05584 25.663 6.89749 25.6281 6.79006 25.5092C6.67868 25.3911 6.65787 25.2327 6.74028 25.1565C6.82409 25.0817 6.97765 25.1171 7.08903 25.2352C7.19984 25.3551 7.22149 25.5117 7.13656 25.5879ZM7.80649 26.5658C7.70243 26.6384 7.53199 26.5706 7.42681 26.4196C7.32274 26.2683 7.32274 26.0869 7.42962 26.0146C7.53453 25.942 7.70243 26.0076 7.80931 26.1572C7.91281 26.3105 7.91281 26.4922 7.80649 26.5658ZM8.72365 27.5111C8.63084 27.6138 8.43228 27.5862 8.28715 27.4464C8.13893 27.3095 8.09759 27.1146 8.19068 27.0122C8.28518 26.9092 8.48459 26.9379 8.63056 27.0769C8.77878 27.2136 8.82293 27.409 8.72365 27.5111ZM9.98928 28.0598C9.94793 28.1929 9.75724 28.2533 9.56459 28.1965C9.37249 28.1383 9.24678 27.9828 9.28615 27.8483C9.32553 27.7142 9.51762 27.6515 9.7114 27.7119C9.90349 27.7699 10.0292 27.9246 9.98928 28.0598ZM11.3795 28.1614C11.3843 28.3014 11.2212 28.4173 11.0195 28.4201C10.8162 28.4249 10.6516 28.3113 10.6497 28.1735C10.6497 28.032 10.8094 27.9175 11.0125 27.9136C11.2141 27.9099 11.3795 28.0227 11.3795 28.1614ZM12.6727 27.9414C12.6969 28.0778 12.5565 28.2182 12.356 28.2556C12.1591 28.2921 11.9763 28.2072 11.951 28.0719C11.9268 27.9319 12.0697 27.7915 12.2666 27.7552C12.4674 27.7206 12.6474 27.8028 12.6727 27.9414Z" fill="#4A4A4A"/>
</svg>
