<svg width="19" height="32" viewBox="0 0 19 32" fill="none" xmlns="http://www.w3.org/2000/svg">
    <path d="M18 31.3742C17.9694 31.496 17.8476 31.557 17.635 31.557H13.5689C13.3243 31.557 13.113 31.4504 12.9294 31.237L6.21566 22.6957L4.34309 24.4771V31.1011C4.34309 31.406 4.19038 31.5582 3.88606 31.5582H0.734375C0.4295 31.5582 0.277344 31.406 0.277344 31.1011V0.908946C0.277344 0.605196 0.429219 0.452759 0.734375 0.452759H3.88634C4.19066 0.452759 4.34338 0.605478 4.34338 0.908665V19.4993L12.3823 11.3689C12.5955 11.1563 12.8087 11.0491 13.0216 11.0491H17.2246C17.4069 11.0491 17.5284 11.1259 17.59 11.2769C17.6513 11.46 17.6361 11.5967 17.5438 11.6884L9.04728 19.9088L17.9086 30.9169C18.0298 31.039 18.0597 31.1911 18 31.3742Z" fill="#4A4A4A"/>
</svg>
