<svg width="36" height="36" viewBox="0 0 36 36" fill="none" xmlns="http://www.w3.org/2000/svg">
    <path d="M32.625 0.843758H3.375C2.71134 0.837004 2.0721 1.0938 1.59755 1.5578C1.12301 2.02181 0.851909 2.65511 0.84375 3.31876V32.6869C0.853385 33.3495 1.12513 33.9814 1.59952 34.4442C2.0739 34.907 2.7123 35.163 3.375 35.1563H32.625C33.2887 35.1615 33.9275 34.9039 34.4018 34.4396C34.8761 33.9753 35.1474 33.3421 35.1562 32.6784V3.31032C35.1444 2.64862 34.8719 2.01833 34.3979 1.55646C33.9239 1.09459 33.2868 0.838464 32.625 0.843758ZM11.0166 30.0938H5.92312V13.7053H11.0166V30.0938ZM8.48531 11.4722C7.90112 11.4728 7.32989 11.3 6.84388 10.9759C6.35787 10.6517 5.97892 10.1907 5.75498 9.65113C5.53103 9.11157 5.47215 8.51771 5.58578 7.94467C5.69941 7.37163 5.98044 6.84518 6.39333 6.43189C6.80622 6.01861 7.33241 5.73707 7.90534 5.6229C8.47827 5.50872 9.07218 5.56704 9.61196 5.79047C10.1517 6.0139 10.6131 6.39241 10.9377 6.87811C11.2624 7.36381 11.4356 7.93488 11.4356 8.51907C11.4349 8.90736 11.3576 9.29168 11.2081 9.65006C11.0587 10.0084 10.8401 10.3338 10.5647 10.6076C10.2894 10.8814 9.96274 11.0982 9.60352 11.2456C9.2443 11.3929 8.85953 11.4681 8.47125 11.4666L8.48531 11.4722ZM30.0938 30.0938H25.0003V22.1203C25.0003 20.2219 24.9666 17.7778 22.3538 17.7778C19.7409 17.7778 19.2966 19.8478 19.2966 21.9966V30.0938H14.2116V13.7053H19.0941V15.9553H19.1616C19.8422 14.6672 21.5016 13.3088 23.9794 13.3088C29.1375 13.2975 30.0938 16.6922 30.0938 21.0938V30.0938Z" fill="#4A4A4A"/>
</svg>
