<svg width="35" height="36" viewBox="0 0 35 36" fill="none" xmlns="http://www.w3.org/2000/svg">
    <path d="M17.4375 0.5625C7.80701 0.5625 0 8.36951 0 18C0 27.6305 7.80701 35.4375 17.4375 35.4375C27.068 35.4375 34.875 27.6305 34.875 18C34.875 8.36951 27.068 0.5625 17.4375 0.5625ZM25.5201 12.4214C25.2577 15.1787 24.1222 21.8699 23.5443 24.9581C23.2999 26.2648 22.8185 26.703 22.3526 26.7458C21.3401 26.8391 20.571 26.0767 19.5903 25.4337C18.0555 24.4277 17.1885 23.8014 15.6987 22.8197C13.9771 21.6852 15.0932 21.0619 16.0744 20.0424C16.3311 19.7757 20.7928 15.7174 20.8792 15.3493C20.8899 15.3032 20.9003 15.1313 20.798 15.041C20.6958 14.9508 20.5456 14.9813 20.437 15.0059C20.2831 15.0409 17.8313 16.6614 13.0817 19.8674C12.3859 20.3453 11.7555 20.5781 11.1907 20.5659C10.5681 20.5525 9.37048 20.2139 8.48011 19.9245C7.38809 19.5695 6.52015 19.3819 6.59573 18.779C6.63511 18.4649 7.06753 18.1438 7.893 17.8157C12.9764 15.601 16.3661 14.1408 18.0622 13.4352C22.9047 11.421 23.911 11.0711 24.5668 11.0595C24.7111 11.0571 25.0336 11.0928 25.2425 11.2623C25.3815 11.3831 25.4701 11.5516 25.4907 11.7345C25.5261 11.9617 25.536 12.1921 25.5201 12.4214Z" fill="#4A4A4A"/>
</svg>
