<svg fill="none" xmlns="http://www.w3.org/2000/svg" xmlns:xlink="http://www.w3.org/1999/xlink" viewBox="7.77 0 78.1 78.1" width="100" height="100">
    <linearGradient id="a" gradientUnits="userSpaceOnUse" x1="20.021" x2="73.6097" y1="12.2433" y2="65.8295">
        <stop offset="0" stop-color="#ffc100"></stop>
        <stop offset="1" stop-color="#ffa300"></stop>
    </linearGradient>
    <clipPath id="b">
        <path d="m0 0h93.631v125h-93.631z"></path>
    </clipPath>
    <g clip-path="url(#b)">
        <path d="m70.7856 64.5732-2.1003 5.5108c-.4434 1.1629-1.274 2.1375-2.3519 2.7596-1.078.6221-2.3374.8537-3.5661.6558l-5.8224-.9348c-.3763-.0611-.7614-.0418-1.1298.0568-.3683.0985-.7116.274-1.0072.5148l-4.5759 3.7221c-.9654.7857-2.172 1.2146-3.4167 1.2146-1.2446 0-2.4512-.4289-3.4166-1.2146l-4.5759-3.7221c-.2956-.2408-.6389-.4163-1.0073-.5148-.3683-.0986-.7534-.1179-1.1298-.0568l-5.8223.9348c-1.2287.1979-2.4881-.0337-3.5661-.6558-1.0779-.6221-1.9085-1.5967-2.3519-2.7596l-2.1003-5.5108c-.1354-.3567-.345-.6807-.6148-.9505-.2698-.2699-.5938-.4794-.9506-.6148l-5.5107-2.1027c-1.1626-.4433-2.1371-1.2734-2.7596-2.3508-.6224-1.0774-.8549-2.3362-.6582-3.5648l.9372-5.8248c.0608-.3766.041-.7617-.058-1.1301-.0989-.3684-.2748-.7116-.5161-1.007l-3.72209-4.5808c-.7846-.9654-1.21291-2.1714-1.21291-3.4154s.42831-2.45 1.21291-3.4154l3.72209-4.5759c.2413-.2954.4172-.6386.5161-1.007.099-.3683.1188-.7535.058-1.1301l-.9372-5.8199c-.1949-1.2274.0385-2.4846.6608-3.5604s1.5958-1.9047 2.757-2.3478l5.5107-2.11c.3573-.136.6816-.3463.9514-.617.2699-.2707.4792-.5957.614-.9533l2.1003-5.51078c.4434-1.1629 1.274-2.13747 2.3519-2.75956 1.078-.6221 2.3374-.8537 3.5661-.65582l5.8223.93482c.3764.06108.7615.04171 1.1298-.05683.3684-.09854.7117-.27401 1.0073-.51486l4.5759-3.7049c.9654-.785664 2.172-1.214624 3.4166-1.214624 1.2447 0 2.4513.42896 3.4167 1.214624l4.5759 3.72208c.2956.24084.6389.41632 1.0072.51486.3684.09853.7535.1179 1.1298.05682l5.8224-.93481c1.2287-.19789 2.4881.03372 3.5661.65581 1.0779.6221 1.9085 1.59667 2.3519 2.75957l2.1003 5.4936c.1354.3567.345.6807.6148.9505.2698.2699.5938.4794.9506.6148l5.5107 2.115c1.1629.4429 2.1377 1.273 2.7602 2.3504.6225 1.0775.8547 2.3365.6576 3.5652l-.9372 5.8248c-.0608.3766-.041.7617.0579 1.1301.099.3683.2749.7115.5162 1.007l3.7319 4.5685c.7864.9636 1.2159 2.1692 1.2159 3.413 0 1.2437-.4295 2.4493-1.2159 3.4129l-3.7221 4.5759c-.2413.2954-.4172.6386-.5161 1.007-.099.3684-.1188.7535-.058 1.1301l.9372 5.8248c.1972 1.2286-.0351 2.4877-.6576 3.5651-.6225 1.0775-1.5973 1.9076-2.7602 2.3504l-5.5107 2.1028c-.3591.1348-.6853.3445-.9569.6153s-.4824.5963-.6183.9549z" fill="url(#a)"></path>
        <path d="m61.9133 33.8079c1.4397 3.1768 1.7247 6.7567.8058 10.1213s-2.984 6.3026-5.8387 8.3066-6.3196 2.948-9.7962 2.6691c-3.4767-.2789-6.7468-1.7633-9.2454-4.1968-2.6431.9649-5.5208 1.0839-8.2345.3405s-5.1291-2.3123-6.9115-4.4895c-.1763-.2173-.2988-.4732-.3574-.7468-.0587-.2737-.0519-.5573.0199-.8278.0717-.2705.2064-.5202.3929-.7288.1866-.2086.4198-.3702.6807-.4716l7.2626-2.7872-3.6804-5.2531c-.4787-.683-.7808-1.4739-.8793-2.3021s.0097-1.668.315-2.4441c.3052-.7762.7979-1.4647 1.4342-2.004.6362-.5393 1.3961-.9126 2.2118-1.0866 4.1449-.8833 6.8087-1.7404 7.9913-2.5713 1.1826-.831 2.874-3.0073 5.074-6.529.4416-.7083 1.0517-1.2961 1.776-1.711.7242-.4148 1.5399-.6438 2.3743-.6664.8343-.0226 1.6612.1618 2.4069.5369.7456.375 1.3867.929 1.866 1.6123l3.646 5.2065 5.0249-5.7782c.1833-.2118.4141-.3772.6736-.4826s.5403-.1479.8194-.124.5485.1136.7863.2617c.2377.1481.437.3504.5816.5903 1.4263 2.4008 2.0765 5.1835 1.8617 7.9677-.2147 2.7843-1.284 5.4343-3.0615 7.588zm-12.9942 24.8327-3.8889-.5496c-.3243-.0452-.6543-.0259-.9712.0565s-.6144.2265-.8756.4239c-.5276.3987-.8751.9906-.9662 1.6456-.0911.6549.0817 1.3193.4804 1.8468.3987.5276.9906.8751 1.6456.9662l3.8914.5521c.646.0714 1.2943-.112 1.8072-.5112.5128-.3992.8497-.9828.9389-1.6266.0891-.6438-.0764-1.2969-.4614-1.8206-.385-.5236-.9591-.8763-1.6002-.9831zm20.4383-17.4205c-.6458-.1382-1.3201-.0143-1.8746.3446s-.9436.9234-1.0819 1.5692l-.8146 3.8448c-.1383.6468-.014 1.3221.3456 1.8772.3596.5552.925.9448 1.5718 1.083.6469.1383 1.3221.014 1.8773-.3456.5551-.3596.9447-.925 1.083-1.5718l.8146-3.8571c.0684-.3206.073-.6515.0134-.9739-.0595-.3223-.182-.6298-.3604-.9049-.1784-.275-.4092-.5122-.6793-.6979-.2702-.1858-.5742-.3165-.8949-.3847z" fill="#fff"></path>
    </g>
</svg>