<svg width="72" height="72" viewBox="0 0 72 72" fill="none" xmlns="http://www.w3.org/2000/svg">
    <path d="M72 36C72 55.8823 55.8823 72 36 72C16.1177 72 0 55.8823 0 36C0 16.1177 16.1177 0 36 0C55.8823 0 72 16.1177 72 36Z" fill="#4A4A4A"/>
    <path fill-rule="evenodd" clip-rule="evenodd" d="M36 12C22.7446 12 12 22.7446 12 36C12 49.2554 22.7446 60 36 60C49.2554 60 60 49.2554 60 36C60 22.7446 49.2554 12 36 12ZM27.5003 17.5508C24.2598 19.0445 21.47 21.3657 19.4119 24.2807C17.3539 27.1957 16.1003 30.6014 15.7772 34.155C15.4542 37.7086 16.0732 41.2846 17.5719 44.5229C19.0706 47.7612 21.3961 50.5474 24.3142 52.6009C27.2323 54.6545 30.64 55.9029 34.1941 56.2205C37.7482 56.5381 41.3233 55.9136 44.5592 54.4099C47.7952 52.9063 50.5778 50.5765 52.6269 47.6553C54.676 44.734 55.9193 41.3244 56.2314 37.7698L55.0991 36.6375C54.6775 36.2157 54.3267 35.7286 54.0603 35.1951L51.4018 29.8782C51.3295 29.7338 51.2239 29.6088 51.0937 29.5133C50.9636 29.4178 50.8126 29.3546 50.6532 29.3289C50.4939 29.3032 50.3307 29.3157 50.1771 29.3654C50.0235 29.4151 49.8839 29.5006 49.7698 29.6148C49.513 29.8713 49.1923 30.0545 48.8409 30.1454C48.4894 30.2363 48.1201 30.2316 47.7711 30.1317L44.6375 29.2382C44.1362 29.0972 43.601 29.1395 43.128 29.3574C42.655 29.5753 42.2751 29.9546 42.0564 30.4272C41.8377 30.8999 41.7945 31.435 41.9346 31.9365C42.0747 32.4381 42.389 32.8734 42.8209 33.1643L44.2658 34.1243C45.7182 35.0966 45.9249 37.152 44.6892 38.3877L44.1969 38.88C43.6775 39.4018 43.3846 40.1058 43.3846 40.8394V41.8486C43.3846 42.8554 43.1138 43.84 42.5969 44.6991L39.36 50.0923C38.8986 50.8619 38.2456 51.4988 37.4648 51.941C36.684 52.3832 35.8019 52.6155 34.9046 52.6154C34.2159 52.6154 33.5553 52.3418 33.0683 51.8548C32.5813 51.3677 32.3077 50.7072 32.3077 50.0185V47.1335C32.3077 44.8689 30.9292 42.8332 28.8271 41.9914L27.2172 41.3489C26.0437 40.8798 25.0659 40.0234 24.4462 38.9219C23.8265 37.8204 23.6022 36.5401 23.8105 35.2935L23.8277 35.1902C23.9421 34.5054 24.1843 33.8482 24.5415 33.2529L24.7631 32.8837C25.3509 31.9048 26.227 31.1315 27.2713 30.6697C28.3157 30.2079 29.4772 30.0802 30.5969 30.304L33.4966 30.8849C34.179 31.021 34.8876 30.8953 35.4814 30.5327C36.0753 30.1701 36.5109 29.5972 36.7015 28.928L37.2135 27.1311C37.3909 26.5103 37.3458 25.847 37.086 25.256C36.8262 24.6649 36.3681 24.1832 35.7908 23.8942L34.1538 23.0769L33.9298 23.3009C33.4155 23.8152 32.805 24.2232 32.133 24.5015C31.4611 24.7798 30.7409 24.9231 30.0135 24.9231H29.5705C28.9575 24.9231 28.3717 25.1692 27.9409 25.5975C27.5461 25.9959 27.019 26.2357 26.4593 26.2714C25.8995 26.3072 25.3462 26.1364 24.9039 25.7915C24.4616 25.4466 24.1612 24.9515 24.0595 24.4C23.9578 23.8484 24.0618 23.2787 24.352 22.7988L27.5003 17.5508Z" fill="#FCF8F3"/>
</svg>
