<svg width="72" height="72" viewBox="0 0 72 72" fill="none" xmlns="http://www.w3.org/2000/svg">
    <path d="M72 36C72 55.8823 55.8823 72 36 72C16.1177 72 0 55.8823 0 36C0 16.1177 16.1177 0 36 0C55.8823 0 72 16.1177 72 36Z" fill="#4A4A4A"/>
    <path fill-rule="evenodd" clip-rule="evenodd" d="M35.08 56.702L35.276 56.814C35.4981 56.9341 35.7465 56.997 35.999 56.997C36.2515 56.997 36.4999 56.9341 36.722 56.814L36.778 56.784L36.92 56.702C37.7022 56.2382 38.4655 55.7431 39.208 55.218C41.1301 53.861 42.9261 52.3334 44.574 50.654C48.462 46.674 52.5 40.694 52.5 33C52.5 28.6239 50.7616 24.4271 47.6673 21.3327C44.5729 18.2384 40.3761 16.5 36 16.5C31.6239 16.5 27.4271 18.2384 24.3327 21.3327C21.2384 24.4271 19.5 28.6239 19.5 33C19.5 40.692 23.54 46.674 27.426 50.654C29.0733 52.3334 30.8685 53.8609 32.79 55.218C33.5331 55.7431 34.2971 56.2382 35.08 56.702ZM36 39C37.5913 39 39.1174 38.3679 40.2426 37.2426C41.3679 36.1174 42 34.5913 42 33C42 31.4087 41.3679 29.8826 40.2426 28.7574C39.1174 27.6321 37.5913 27 36 27C34.4087 27 32.8826 27.6321 31.7574 28.7574C30.6321 29.8826 30 31.4087 30 33C30 34.5913 30.6321 36.1174 31.7574 37.2426C32.8826 38.3679 34.4087 39 36 39Z" fill="#FCF8F3"/>
</svg>
