<svg width="72" height="72" viewBox="0 0 72 72" fill="none" xmlns="http://www.w3.org/2000/svg">
    <path d="M72 36C72 55.8823 55.8823 72 36 72C16.1177 72 0 55.8823 0 36C0 16.1177 16.1177 0 36 0C55.8823 0 72 16.1177 72 36Z" fill="#4A4A4A"/>
    <path fill-rule="evenodd" clip-rule="evenodd" d="M27 22.5C27 20.9087 27.6321 19.3826 28.7574 18.2574C29.8826 17.1321 31.4087 16.5 33 16.5H39C40.5913 16.5 42.1174 17.1321 43.2426 18.2574C44.3679 19.3826 45 20.9087 45 22.5V22.91C46.866 23.08 48.714 23.304 50.548 23.578C53.456 24.014 55.5 26.544 55.5 29.412V35.478C55.5 37.9 54.032 40.182 51.628 40.982C46.5877 42.6551 41.3107 43.5053 36 43.5C30.54 43.5 25.286 42.616 20.372 40.982C17.968 40.182 16.5 37.9 16.5 35.478V29.412C16.5 26.544 18.544 24.012 21.452 23.578C23.2946 23.3024 25.1447 23.0797 27 22.91V22.5ZM42 22.5V22.68C38.0037 22.4373 33.9963 22.4373 30 22.68V22.5C30 21.7044 30.3161 20.9413 30.8787 20.3787C31.4413 19.8161 32.2044 19.5 33 19.5H39C39.7956 19.5 40.5587 19.8161 41.1213 20.3787C41.6839 20.9413 42 21.7044 42 22.5ZM36 39C36.3978 39 36.7794 38.842 37.0607 38.5607C37.342 38.2794 37.5 37.8978 37.5 37.5C37.5 37.1022 37.342 36.7206 37.0607 36.4393C36.7794 36.158 36.3978 36 36 36C35.6022 36 35.2206 36.158 34.9393 36.4393C34.658 36.7206 34.5 37.1022 34.5 37.5C34.5 37.8978 34.658 38.2794 34.9393 38.5607C35.2206 38.842 35.6022 39 36 39Z" fill="#FCF8F3"/>
    <path d="M18 48.8V43.208C18.4556 43.4573 18.9329 43.6648 19.426 43.828C24.7714 45.6027 30.3677 46.505 36 46.5C41.784 46.5 47.36 45.564 52.574 43.83C53.078 43.662 53.554 43.452 54 43.208V48.8C54 51.704 51.906 54.256 48.954 54.646C44.714 55.21 40.39 55.5 36 55.5C31.6679 55.5009 27.3405 55.2156 23.046 54.646C20.094 54.256 18 51.704 18 48.8Z" fill="#FCF8F3"/>
</svg>
