<svg width="33" height="19" viewBox="0 0 33 19" fill="none" xmlns="http://www.w3.org/2000/svg">
    <path fill-rule="evenodd" clip-rule="evenodd" d="M17.5226 17.5974C17.2413 17.8783 16.8601 18.0361 16.4626 18.0361C16.0651 18.0361 15.6838 17.8783 15.4026 17.5974L0.402584 2.59742C0.137624 2.31307 -0.00662274 1.93697 0.000233694 1.54837C0.00709013 1.15977 0.164514 0.788998 0.43934 0.514172C0.714166 0.239346 1.08494 0.0819228 1.47354 0.0750664C1.86214 0.0682099 2.23823 0.212456 2.52258 0.477416L16.4626 14.4174L30.4026 0.477416C30.5399 0.330042 30.7055 0.211838 30.8895 0.129854C31.0735 0.0478701 31.2721 0.00378701 31.4735 0.000233445C31.6749 -0.00332012 31.875 0.0337287 32.0618 0.109171C32.2486 0.184613 32.4182 0.296902 32.5607 0.439339C32.7031 0.581777 32.8154 0.751444 32.8908 0.938221C32.9663 1.125 33.0033 1.32505 32.9998 1.52646C32.9962 1.72787 32.9521 1.92649 32.8701 2.11049C32.7882 2.29449 32.67 2.46009 32.5226 2.59742L17.5226 17.5974Z" fill="#4A4A4A"/>
</svg>
