<svg width="513" height="513" viewBox="0 0 513 513" fill="none" xmlns="http://www.w3.org/2000/svg">
<path fill-rule="evenodd" clip-rule="evenodd" d="M164.321 0.481476H246.241V20.9615H266.721V41.4415H246.241V82.4015H266.721V41.4415H287.201V82.4015H307.681V102.881H246.241V123.361H225.761V102.881H205.281V61.9215H225.761V20.9615H164.321V0.481476ZM266.721 0.481476H287.201V20.9615H266.721V0.481476ZM287.201 20.9615H307.681V41.4415H287.201V20.9615ZM328.161 20.9615H348.641V61.9215H328.161V82.4015H307.681V41.4415H328.161V20.9615ZM184.801 41.4415H205.281V61.9215H184.801V41.4415ZM328.161 82.4015H348.641V143.841H328.161V82.4015ZM184.801 102.881H205.281V123.361H184.801V102.881ZM164.321 123.361H184.801V143.841H205.281V184.801H184.801V164.321H164.321V123.361ZM205.281 123.361H225.761V143.841H205.281V123.361ZM246.241 123.361H266.721V143.841H287.201V164.321H266.721V184.801H246.241V123.361ZM287.201 123.361H307.681V143.841H287.201V123.361ZM307.681 143.841H328.161V164.321H307.681V143.841ZM0.481445 164.321H41.4414V205.281H61.9214V164.321H102.881V205.281H143.841V225.761H41.4414V246.241H61.9214V266.721H20.9614V225.761H0.481445V205.281H20.9614V184.801H0.481445V164.321ZM123.361 164.321H143.841V184.801H123.361V164.321ZM287.201 164.321H307.681V184.801H328.161V205.281H348.641V225.761H328.161V246.241H287.201V225.761H307.681V205.281H287.201V164.321ZM369.121 164.321H389.601V184.801H369.121V164.321ZM492.001 164.321H512.481V184.801H492.001V164.321ZM205.281 184.801H225.761V205.281H205.281V184.801ZM389.601 184.801H492.001V205.281H451.041V225.761H492.001V205.281H512.481V266.721H492.001V246.241H430.561V225.761H389.601V184.801ZM184.801 205.281H205.281V225.761H184.801V205.281ZM246.241 205.281H266.721V225.761H246.241V205.281ZM143.841 225.761H164.321V287.201H143.841V266.721H123.361V246.241H143.841V225.761ZM348.641 225.761H369.121V246.241H348.641V225.761ZM184.801 246.241H225.761V287.201H205.281V266.721H184.801V246.241ZM328.161 246.241H348.641V266.721H369.121V287.201H389.601V307.681H410.081V328.161H369.121V307.681H348.641V287.201H328.161V307.681H348.641V328.161H307.681V348.641H287.201V369.121H266.721V348.641H246.241V369.121H205.281V410.081H184.801V369.121H164.321V348.641H225.761V328.161H246.241V307.681H266.721V328.161H287.201V287.201H307.681V266.721H328.161V246.241ZM369.121 246.241H410.081V266.721H369.121V246.241ZM0.481445 266.721H20.9614V287.201H41.4414V307.681H20.9614V348.641H0.481445V266.721ZM61.9214 266.721H82.4014V307.681H61.9214V266.721ZM246.241 266.721H287.201V287.201H246.241V266.721ZM410.081 266.721H430.561V287.201H471.521V266.721H492.001V287.201H512.481V328.161H492.001V307.681H471.521V328.161H492.001V369.121H451.041V328.161H430.561V307.681H410.081V266.721ZM102.881 287.201H143.841V307.681H123.361V328.161H102.881V287.201ZM41.4414 307.681H61.9214V328.161H41.4414V307.681ZM164.321 307.681H225.761V328.161H164.321V307.681ZM61.9214 328.161H102.881V348.641H61.9214V328.161ZM123.361 328.161H143.841V348.641H123.361V328.161ZM246.241 369.121H266.721V389.601H246.241V369.121ZM492.001 369.121H512.481V410.081H492.001V369.121ZM225.761 389.601H246.241V410.081H266.721V430.561H287.201V410.081H266.721V389.601H328.161V430.561H307.681V451.041H246.241V430.561H225.761V451.041H246.241V492.001H266.721V512.481H205.281V410.081H225.761V389.601ZM164.321 410.081H184.801V451.041H164.321V410.081ZM348.641 430.561H389.601V451.041H369.121V471.521H328.161V451.041H348.641V430.561ZM471.521 430.561H512.481V512.481H492.001V492.001H451.041V471.521H430.561V492.001H389.601V471.521H410.081V451.041H471.521V430.561ZM164.321 471.521H184.801V512.481H164.321V471.521ZM287.201 471.521H307.681V492.001H287.201V471.521ZM328.161 492.001H348.641V512.481H328.161V492.001ZM430.561 492.001H451.041V512.481H430.561V492.001Z" fill="black"/>
<path fill-rule="evenodd" clip-rule="evenodd" d="M0.481445 0.481476H143.841V143.841H0.481445V0.481476ZM20.9614 20.9615H123.361V123.361H20.9614V20.9615ZM41.4414 41.4415H102.881V102.881H41.4414V41.4415ZM369.121 0.481476H512.481V143.841H369.121V0.481476ZM389.601 20.9615H492.001V123.361H389.601V20.9615ZM410.081 41.4415H471.521V102.881H410.081V41.4415ZM0.481445 369.121H143.841V512.481H0.481445V369.121ZM20.9614 389.601H123.361V492.001H20.9614V389.601ZM41.4414 410.081H102.881V471.521H41.4414V410.081ZM328.161 328.161H430.561V430.561H328.161V328.161ZM348.641 348.641H410.081V410.081H348.641V348.641ZM369.121 369.121H389.601V389.601H369.121V369.121Z" fill="black"/>
</svg>
